<?xml version="1.0" standalone="no"?><!DOCTYPE svg PUBLIC "-//W3C//DTD SVG 1.1//EN" "http://www.w3.org/Graphics/SVG/1.1/DTD/svg11.dtd"><svg t="1596301166597" class="icon" viewBox="0 0 1024 1024" version="1.1" xmlns="http://www.w3.org/2000/svg" p-id="39994" width="128" height="128" xmlns:xlink="http://www.w3.org/1999/xlink"><defs><style type="text/css"></style></defs><path d="M512 512m-479.982933 0a479.982933 479.982933 0 1 0 959.965866 0 479.982933 479.982933 0 1 0-959.965866 0Z" fill="#64A5FA" p-id="39995"></path><path d="M512 991.982933A479.982933 479.982933 0 1 0 512 32.085333a479.982933 479.982933 0 0 0 0 959.965867z m0 32.017067a512 512 0 1 1 0-1024 512 512 0 0 1 0 1024z" fill="#FFFFFF" p-id="39996"></path><path d="M767.317333 402.978133l-28.603733 8.260267-28.603733-70.178133c-8.192-20.6848-32.631467-49.834667-57.207467-49.834667H371.0976c-24.576 0-49.083733 29.149867-57.207467 49.834667l-28.672 70.178133-28.535466-8.260267h-8.192c-12.288 0-24.507733 12.356267-24.507734 24.7808v16.520534c0 16.520533 12.288 33.041067 32.699734 33.041066l-4.096 8.192c-8.192 20.6848-14.199467 53.725867-14.199467 74.410667v140.9024c0 16.520533 8.3968 36.590933 28.808533 36.590933h43.2128c16.384 0 28.808533-15.906133 28.808534-36.590933v-33.5872h345.565866v33.5872c0 16.520533 8.3968 36.590933 28.808534 36.590933h43.2128c16.384 0 28.808533-15.906133 28.808533-36.590933V559.854933c0-20.616533-14.199467-53.6576-22.391467-74.274133l4.096-8.260267h4.096c16.384 0 28.603733-12.424533 28.603734-33.041066v-16.520534c0-12.424533-12.288-24.7808-24.576-24.7808h-8.123734zM313.821867 476.7744l44.2368-107.3152a33.792 33.792 0 0 1 32.221866-24.7808h245.418667c12.0832 0 28.194133 12.356267 32.221867 24.7808l44.2368 107.3152c4.027733 12.424533 0 24.7808-16.110934 24.7808H325.905067c-12.0832-4.096-20.138667-12.356267-12.0832-24.7808z m13.312 162.2016a45.329067 45.329067 0 0 1-45.4656-45.192533c0-24.917333 20.343467-45.124267 45.4656-45.124267 25.122133 0 45.4656 20.206933 45.4656 45.124267a45.329067 45.329067 0 0 1-45.4656 45.192533z m374.306133 0a45.329067 45.329067 0 0 1-45.4656-45.192533c0-24.917333 20.411733-45.124267 45.4656-45.124267 25.122133 0 45.533867 20.206933 45.533867 45.124267a45.329067 45.329067 0 0 1-45.533867 45.192533z" fill="#FFFFFF" p-id="39997"></path></svg>